<svg xmlns="http://www.w3.org/2000/svg" width="24" height="29.322" viewBox="0 0 24 29.322"><path d="M10.464,15.125a8.49,8.49,0,0,1-1.036-1.179,7.2,7.2,0,0,1-.75-1.411A7.936,7.936,0,0,1,8.2,10.964,8,8,0,0,1,8,9.339a7.972,7.972,0,0,1,.625-3.125,12.686,12.686,0,0,1,.75-1.375,12.329,12.329,0,0,1,.964-1.161q.375-.357,1.2-1a10.314,10.314,0,0,1,1.339-.714A8.316,8.316,0,0,1,14.41,1.5,7.725,7.725,0,0,1,16,1.339a7.907,7.907,0,0,1,1.625.161,9.267,9.267,0,0,1,1.5.464,10.314,10.314,0,0,1,1.339.714,7.848,7.848,0,0,1,1.2.982,8.767,8.767,0,0,1,1,1.179,9.572,9.572,0,0,1,.714,1.375,8.317,8.317,0,0,1,.464,1.536A7.9,7.9,0,0,1,24,9.339a7.782,7.782,0,0,1-.179,1.625,7.345,7.345,0,0,1-.482,1.571,8.221,8.221,0,0,1-.768,1.393,10.293,10.293,0,0,1-1.036,1.2,9.951,9.951,0,0,1,1.375.554,7.685,7.685,0,0,1,1.214.75,8.055,8.055,0,0,1,1.089.911,10.287,10.287,0,0,1,.982,1.107,13.355,13.355,0,0,1,.75,1.25,6.363,6.363,0,0,1,.589,1.339,8.484,8.484,0,0,1,.375,1.429A11.15,11.15,0,0,1,28,24v6.661H4V24a8.166,8.166,0,0,1,.125-1.536q.2-.911.339-1.429A11.7,11.7,0,0,1,5.067,19.7q.464-.8.768-1.232a8.139,8.139,0,0,1,.946-1.089,7.676,7.676,0,0,1,1.089-.946,10.768,10.768,0,0,1,1.25-.75,7.48,7.48,0,0,1,1.339-.554ZM6.661,28H25.34V24a5.983,5.983,0,0,0-.125-1.3,8.439,8.439,0,0,0-.393-1.286,6.787,6.787,0,0,0-.625-1.125,4.864,4.864,0,0,0-.821-1,4.457,4.457,0,0,0-.964-.839,6.446,6.446,0,0,0-1.161-.607A5.664,5.664,0,0,0,20,17.464a6.174,6.174,0,0,0-1.339-.125H13.341a5.983,5.983,0,0,0-1.3.125,7.8,7.8,0,0,0-1.286.375,6.437,6.437,0,0,0-1.125.607,6.66,6.66,0,0,0-1,.839,6.417,6.417,0,0,0-.8.964,11.419,11.419,0,0,0-.643,1.161,12.043,12.043,0,0,0-.357,1.25A5.939,5.939,0,0,0,6.661,24v4ZM16,4a5.31,5.31,0,0,0-2.071.411,5.138,5.138,0,0,0-1.714,1.161,5.28,5.28,0,0,0-1.143,1.714,5.021,5.021,0,0,0-.411,2.054,4.976,4.976,0,0,0,.411,2.036,5.28,5.28,0,0,0,1.143,1.714,5.523,5.523,0,0,0,1.714,1.2A5.662,5.662,0,0,0,16,14.661a5.4,5.4,0,0,0,2.071-.375,5.968,5.968,0,0,0,1.714-1.2,5.28,5.28,0,0,0,1.143-1.714,4.976,4.976,0,0,0,.411-2.036,5.021,5.021,0,0,0-.411-2.054,5.28,5.28,0,0,0-1.143-1.714,5.152,5.152,0,0,0-1.714-1.161A5.064,5.064,0,0,0,16,4Z" transform="translate(-3.996 -1.339)"/></svg>