<svg xmlns="http://www.w3.org/2000/svg" width="210.859" height="58" viewBox="0 0 210.859 58"><defs><style>.a{fill:#ffb71b;}.b{fill:#0b1f41;}.c{fill:#0b3e5e;}</style></defs><g transform="translate(-0.057)"><g transform="translate(0.057)"><path class="a" d="M19.115,14.718,18.051,2.246C18.051,1,19.47,0,21.3,0s3.251,1,3.251,2.246L23.43,14.718a2.065,2.065,0,0,1-2.187,1.359A1.988,1.988,0,0,1,19.115,14.718Zm-6.8,6.443L.969,15.841c-1.064-.591-1.241-2.364-.3-3.96s2.482-2.305,3.606-1.714l10.285,7.211a2.006,2.006,0,0,1,.059,2.542C14.032,20.865,13.027,21.456,12.318,21.16ZM28.1,17.437l10.285-7.211c1.064-.591,2.66.118,3.606,1.714s.768,3.31-.3,3.96l-11.349,5.32c-.709.3-1.655-.236-2.246-1.182A2.1,2.1,0,0,1,28.1,17.437ZM21.3,31.681c1.123,0,2.069.591,2.187,1.3l1.064,12.531c0,1.241-1.478,2.246-3.251,2.246s-3.251-1-3.251-2.246l1.123-12.472C19.233,32.272,20.179,31.681,21.3,31.681Zm6.738-3.9c.591-.946,1.537-1.478,2.246-1.182l11.349,5.261c1.064.591,1.241,2.364.3,3.96s-2.542,2.305-3.606,1.714L28.1,30.322A2.087,2.087,0,0,1,28.04,27.78Zm-13.476,0a2.087,2.087,0,0,1-.059,2.542L4.22,37.533c-1.064.591-2.66-.118-3.546-1.714s-.768-3.31.3-3.96L12.318,26.6C13.027,26.3,13.973,26.775,14.564,27.78Z" transform="translate(-0.057)"/></g><g transform="translate(53.709 8.216)"><path class="b" d="M98.6,16.619H91.568a.745.745,0,0,1-.768-.768V14.668a.745.745,0,0,1,.768-.768h17.141a.745.745,0,0,1,.768.768v1.182a.745.745,0,0,1-.768.768h-7.034V41.444a.782.782,0,0,1-.768.768H99.37a.782.782,0,0,1-.768-.768V16.619Z" transform="translate(-90.8 -13.9)"/></g><g transform="translate(68.79 11.704)"><g transform="translate(0 5.738)"><path class="b" d="M125.4,29.5a8.214,8.214,0,0,1,8.452,8.511c0,.3-.059.827-.059,1.123a.938.938,0,0,1-.827.827H119.374c.059,3.133,2.719,6.384,6.088,6.384a8.261,8.261,0,0,0,5.024-1.537c.65-.473.946-.591,1.419.118l.473.709c.355.591.532.768-.177,1.3a11.527,11.527,0,0,1-6.856,2.128c-5.674,0-9.043-4.433-9.043-9.753C116.359,33.992,119.728,29.5,125.4,29.5Zm5.438,8.039a5.437,5.437,0,0,0-5.438-5.32,6.125,6.125,0,0,0-6.029,5.32Z" transform="translate(-116.3 -29.5)"/></g><g transform="translate(19.069 6.093)"><path class="b" d="M148.762,47.6l6.206-8.275-6.088-7.979a.716.716,0,0,1,.591-1.241h1.714a.921.921,0,0,1,.709.355l4.669,6.443h.059l4.847-6.443a1.03,1.03,0,0,1,.709-.355h1.714c.768,0,1.064.591.591,1.241L158.4,39.2l6.088,8.334a.725.725,0,0,1-.591,1.241h-1.537a.82.82,0,0,1-.709-.414l-5.083-7.034h-.059l-5.024,7.093a1.167,1.167,0,0,1-.709.355h-1.359C148.585,48.837,148.348,48.187,148.762,47.6Z" transform="translate(-148.563 -30.1)"/></g><g transform="translate(36.232)"><path class="b" d="M178.546,28.485a.886.886,0,0,1-.946-.887v-.827a.855.855,0,0,1,.946-.887h2.483V20.742a1,1,0,0,1,.887-.887l1.241-.059a.824.824,0,0,1,.827.887v5.261h5.5a.886.886,0,0,1,.946.887V27.6a.922.922,0,0,1-.946.887h-5.5V39.538c0,1.951,1.182,2.778,2.482,2.778a5.567,5.567,0,0,0,2.9-.828c.709-.473,1-.059,1.182.355l.3.827c.236.591.177.946-.3,1.182a9.547,9.547,0,0,1-4.374,1.123c-3.251,0-5.142-2.6-5.142-5.5V28.485Z" transform="translate(-177.6 -19.792)"/></g></g><g transform="translate(121.17 8.216)"><path class="b" d="M204.9,14.787a.859.859,0,0,1,.827-.887h1.241a.953.953,0,0,1,.887.887V24.3A11.219,11.219,0,0,1,213,23.121c5.556,0,8.807,4.256,8.807,9.694,0,5.32-3.605,9.812-8.334,9.812a8.217,8.217,0,0,1-5.911-2.364c-.118,1.182-.768,2.128-1.951,2.128a.652.652,0,0,1-.709-.709V14.787Zm2.955,22.047s1.951,3.074,5.32,3.074,5.674-3.428,5.674-7.093c0-3.724-2.128-7.034-6.206-7.034a10.822,10.822,0,0,0-4.729,1.182v9.871Z" transform="translate(-204.9 -13.9)"/></g><g transform="translate(140.209 17.444)"><path class="b" d="M246.5,29.5a9.759,9.759,0,1,1-9.4,9.694A9.641,9.641,0,0,1,246.5,29.5Zm0,16.786c3.665,0,6.384-3.251,6.384-7.093,0-3.783-2.719-6.975-6.384-6.975a6.7,6.7,0,0,0-6.443,6.975C240.055,43.095,242.774,46.286,246.5,46.286Z" transform="translate(-237.1 -29.5)"/></g><g transform="translate(160.735 17.444)"><path class="b" d="M281.2,29.5a9.759,9.759,0,1,1-9.4,9.694A9.641,9.641,0,0,1,281.2,29.5Zm0,16.786c3.665,0,6.384-3.251,6.384-7.093,0-3.783-2.719-6.975-6.384-6.975a6.7,6.7,0,0,0-6.443,6.975C274.814,43.095,277.533,46.286,281.2,46.286Z" transform="translate(-271.8 -29.5)"/></g><g transform="translate(181.895 8.216)"><path class="b" d="M307.6,14.787a.909.909,0,0,1,.887-.887h1.241a.953.953,0,0,1,.887.887V30.568l7.743-6.5a1.9,1.9,0,0,1,1.123-.591h2.246A.648.648,0,0,1,322.2,24.6l-8.63,7.152,9.28,9.221a.684.684,0,0,1-.473,1.182h-2.305a1.675,1.675,0,0,1-.946-.355l-8.511-8.984v8.511a.953.953,0,0,1-.887.887h-1.241a.909.909,0,0,1-.887-.887Z" transform="translate(-307.6 -13.9)"/></g><g transform="translate(198.18 17.385)"><path class="b" d="M335.358,46.718a.683.683,0,0,1-.118-.827l.591-1.064a.622.622,0,0,1,1.064-.236,7.683,7.683,0,0,0,4.669,1.655c1.891,0,3.192-.887,3.192-2.364,0-1.773-1.478-2.482-4.138-3.842-2.482-1.182-5.32-2.542-5.32-5.733,0-1.951,1.478-4.906,5.792-4.906a9.689,9.689,0,0,1,5.32,1.478q.621.443.177,1.241l-.414.768a.867.867,0,0,1-1.3.3,7.643,7.643,0,0,0-3.842-1.064c-2.069,0-2.719,1.182-2.719,2.069,0,1.655,1.3,2.246,3.546,3.31,3.251,1.478,6.029,2.719,6.029,6.088,0,2.955-2.542,5.32-6.324,5.32A9.012,9.012,0,0,1,335.358,46.718Z" transform="translate(-335.152 -29.4)"/></g><g transform="translate(92.789 45.706)"><path class="c" d="M156.9,77.3h1.891l2.542,7.034,2.6-7.034h1.773l-3.724,9.28h-1.419Z" transform="translate(-156.9 -77.3)"/></g><g transform="translate(100.061 45.706)"><path class="c" d="M173.219,77.3h1.419l4.019,9.28h-1.891l-.887-2.128H171.86l-.827,2.128H169.2Zm2.069,5.792-1.419-3.783-1.478,3.783Z" transform="translate(-169.2 -77.3)"/></g><g transform="translate(110.526 45.706)"><path class="c" d="M186.9,77.3h1.655v7.8h3.96V86.58H186.9V77.3Z" transform="translate(-186.9 -77.3)"/></g><g transform="translate(127.79 45.706)"><path class="c" d="M216.1,77.3h3.251a9.666,9.666,0,0,1,1.3.118,3.659,3.659,0,0,1,1.123.414,2.222,2.222,0,0,1,.828.827,2.828,2.828,0,0,1-.3,2.955,2.351,2.351,0,0,1-1.6.827l2.482,4.137h-2.01l-2.128-3.96h-1.182v3.96h-1.655V77.3Zm2.955,3.96a2.878,2.878,0,0,0,.709-.059,1.347,1.347,0,0,0,.65-.177,1.423,1.423,0,0,0,.473-.355,1.574,1.574,0,0,0,.177-.709,1.191,1.191,0,0,0-.177-.65.734.734,0,0,0-.473-.355c-.177-.059-.414-.118-.591-.177-.236,0-.473-.059-.65-.059H217.7V81.26Z" transform="translate(-216.1 -77.3)"/></g><g transform="translate(136.067 45.706)"><path class="c" d="M230.1,77.3h6.147v1.478h-4.492v2.305h4.256v1.478h-4.256v2.482h4.729v1.478H230.1V77.3Z" transform="translate(-230.1 -77.3)"/></g><g transform="translate(144.286 45.706)"><path class="c" d="M244.059,77.3h2.66a6.423,6.423,0,0,1,1.064.059,2.611,2.611,0,0,1,.946.355,2.213,2.213,0,0,1,.709.768,2.334,2.334,0,0,1,.236,1.241,1.855,1.855,0,0,1-.414,1.241,2.042,2.042,0,0,1-1.241.709h0a1.924,1.924,0,0,1,.827.236,2.624,2.624,0,0,1,.65.473,1.418,1.418,0,0,1,.414.709,1.55,1.55,0,0,1,.118.887,2.478,2.478,0,0,1-.3,1.3,2.385,2.385,0,0,1-.768.768,5.113,5.113,0,0,1-1,.414,5.824,5.824,0,0,1-1,.118H244l.059-9.28Zm.827,4.019h1.832a3.347,3.347,0,0,0,1.064-.177,2.441,2.441,0,0,0,.65-.414,1.143,1.143,0,0,0,.3-.532,1.3,1.3,0,0,0,.059-.473,2.086,2.086,0,0,0-.177-.827,1.287,1.287,0,0,0-.414-.532,2.185,2.185,0,0,0-.65-.3,3.371,3.371,0,0,0-.768-.059h-1.891Zm0,4.492h2.01a4.5,4.5,0,0,0,1.241-.177,1.507,1.507,0,0,0,.709-.473,1.226,1.226,0,0,0,.355-.591,1.636,1.636,0,0,0,.059-.532,2.372,2.372,0,0,0-.177-.887,1.676,1.676,0,0,0-.532-.591,2,2,0,0,0-.709-.355,3.488,3.488,0,0,0-.827-.118h-2.128Z" transform="translate(-244 -77.3)"/></g><g transform="translate(173.856 45.706)"><path class="c" d="M294,77.3h.887v4.078h.059l4.492-4.078h1.182l-4.669,4.256,4.965,5.024h-1.241l-4.729-4.788h-.059V86.58H294Z" transform="translate(-294 -77.3)"/></g><g transform="translate(181.363 45.528)"><path class="c" d="M307.468,84.743a2.545,2.545,0,0,0,.887.887,2.949,2.949,0,0,0,1.241.3,3.991,3.991,0,0,0,.828-.118,1.409,1.409,0,0,0,.65-.355,2.315,2.315,0,0,0,.473-.591,1.754,1.754,0,0,0,0-1.537,1.526,1.526,0,0,0-.532-.532c-.236-.118-.473-.236-.768-.355s-.591-.177-.887-.3a5.546,5.546,0,0,1-.887-.355,3.351,3.351,0,0,1-.768-.473,2.038,2.038,0,0,1-.532-.709A2.371,2.371,0,0,1,307,79.482a2.164,2.164,0,0,1,.236-1.064,1.634,1.634,0,0,1,.65-.768,2.048,2.048,0,0,1,.946-.473A3.712,3.712,0,0,1,309.951,77a4.063,4.063,0,0,1,1.419.3,2.365,2.365,0,0,1,1.123.887l-.768.532a2.213,2.213,0,0,0-.768-.709,2.164,2.164,0,0,0-1.064-.236,3.991,3.991,0,0,0-.827.118,1.409,1.409,0,0,0-.65.355,2.038,2.038,0,0,0-.473.532,1.819,1.819,0,0,0-.177.768,1.771,1.771,0,0,0,.355,1.064,2.338,2.338,0,0,0,.887.591,3.923,3.923,0,0,0,1.182.355,9.379,9.379,0,0,1,1.182.414,2.782,2.782,0,0,1,.887.768,2.746,2.746,0,0,1,.355,1.359,2.441,2.441,0,0,1-.887,1.951,2.048,2.048,0,0,1-.946.473,3.347,3.347,0,0,1-1.064.177A5.492,5.492,0,0,1,308,86.4a2.89,2.89,0,0,1-1.3-1.064Z" transform="translate(-306.7 -77)"/></g><g transform="translate(116.735 45.41)"><path class="c" d="M202.306,76.8a4.936,4.936,0,1,0,4.965,4.906h0A4.983,4.983,0,0,0,202.306,76.8Zm0,8.393a3.428,3.428,0,1,1,3.428-3.428,3.393,3.393,0,0,1-3.428,3.428Z" transform="translate(-197.4 -76.8)"/></g><g transform="translate(151.559 45.469)"><path class="c" d="M261.206,77.668a4.078,4.078,0,1,1-4.078,4.078h0a4.165,4.165,0,0,1,4.078-4.078m0-.768a4.906,4.906,0,1,0,4.906,4.906h0a4.894,4.894,0,0,0-4.906-4.906Z" transform="translate(-256.3 -76.9)"/></g><g transform="translate(162.497 45.469)"><path class="c" d="M279.706,77.668a4.078,4.078,0,1,1-4.078,4.078h0a4.165,4.165,0,0,1,4.078-4.078m0-.768a4.906,4.906,0,1,0,4.906,4.906h0a4.894,4.894,0,0,0-4.906-4.906Z" transform="translate(-274.8 -76.9)"/></g><g transform="translate(188.16 45.644)"><path class="c" d="M318.2,78.027a1.1,1.1,0,0,1,.118-.414.712.712,0,0,1,.3-.3,1.1,1.1,0,0,1,.414-.118.854.854,0,0,1,.414.118.712.712,0,0,1,.3.3,1.1,1.1,0,0,1,.118.414.854.854,0,0,1-.118.414.712.712,0,0,1-.3.3,1.1,1.1,0,0,1-.414.118.854.854,0,0,1-.414-.118.712.712,0,0,1-.3-.3A.854.854,0,0,1,318.2,78.027Zm.118,0a.84.84,0,0,0,.118.355.59.59,0,0,0,.3.236.591.591,0,0,0,.709,0c.118-.059.177-.177.3-.236a.591.591,0,0,0,0-.709c-.059-.118-.177-.177-.3-.3a.591.591,0,0,0-.709,0A.75.75,0,0,0,318.318,78.027Zm1.064-.177a.217.217,0,0,1-.059.177l-.118.118.3.473h-.236l-.236-.414h-.118v.414h-.177v-1h.3a.533.533,0,0,1,.3.059C319.382,77.673,319.382,77.732,319.382,77.85Zm-.473.177h.118c.059,0,.118,0,.118-.059.059,0,.059-.059.059-.118s0-.118-.059-.118h-.3v.3Z" transform="translate(-318.2 -77.2)"/></g><g transform="translate(76.707 43.223)"><path class="c" d="M129.7,73.455a.341.341,0,0,1,.355-.355h.473a.381.381,0,0,1,.355.355v3.665a4.4,4.4,0,0,1,2.01-.473c2.187,0,3.428,1.655,3.428,3.783,0,2.069-1.419,3.842-3.251,3.842a3.108,3.108,0,0,1-2.305-.946c-.059.473-.3.827-.768.827a.279.279,0,0,1-.3-.3v-10.4Zm1.123,8.57a2.717,2.717,0,0,0,2.069,1.182c1.3,0,2.187-1.359,2.187-2.778a2.471,2.471,0,0,0-2.423-2.719,4.111,4.111,0,0,0-1.832.473v3.842Z" transform="translate(-129.7 -73.1)"/></g><g transform="translate(83.757 46.947)"><path class="c" d="M142.969,89.98l1.359-3.251-2.66-6.915c-.118-.236,0-.414.3-.414h.65c.118,0,.3.059.3.177l2.069,5.792h.059l2.423-5.792a.325.325,0,0,1,.3-.177h.591c.3,0,.414.177.3.414l-4.551,10.4a.393.393,0,0,1-.3.236h-.532C142.969,90.394,142.851,90.217,142.969,89.98Z" transform="translate(-141.623 -79.4)"/></g></g></svg>